# xmcd CD database file
#
# Track frame offsets:
#	159
#	12059
#	23823
#	36186
#	49330
#	60954
#	72765
#	84216
#	95905
#	107296
#	119954
#	139721
#	152029
#	163470
#	175003
#	185010
#	197768
#	208692
#	219365
#
# Disc length: 3107 seconds
#
# Revision: 2
# Processed by: cddbd v1.5.2PL0 Copyright (c) Steve Scherf et al.
# Submitted via: jetAudio 7
#
DISCID=090c2113
DTITLE=Various Artist - Legends of Country Vol.1
DYEAR=2006
DGENRE=Country
TTITLE0=Bob Wills and Texas Playboys - 01  - New San Antonio Rose
TTITLE1=Ernest Tubb - 02  - Walking The Floor Over You
TTITLE2=Johnny Cash - 03  - I Walk The Line
TTITLE3=Hank Williams w/ Drifting Cowboys - 04  - Jambalaya (On The Bay
TTITLE3=ou)
TTITLE4=Johnny Horton - 05  - The Battle Of New Orleans
TTITLE5=Tennessee Ernie Ford - 06  - Sixteen Tons
TTITLE6=Sonny James - 07  - Young Love
TTITLE7=Patsy Cline - 08  - Walkin' After Midnight
TTITLE8=Don Gibson - 09  - Oh Lonesome Me
TTITLE9=Hank Snow and Rainbow Ronch Boys - 10  - I'm Moving On
TTITLE10=Marty Robbins - 11  - El Paso
TTITLE11=Hank Thompson and Brazos Valley Boys - 12  - The Wild Side Of Li
TTITLE11=fe
TTITLE12=Kitty Wells - 13  - It Wasn't God Who Made Honky Tonk Angels
TTITLE13=Ray Price - 14  - Crazy Arms
TTITLE14=Dave Dudley - 15  - Six Days On The Road
TTITLE15=Patsy Cline - 16 -  I Fall To Pieces
TTITLE16=Faron Young - 17  - Hello Walls
TTITLE17=Leroy Van Dyke - 18 -  Walk On By
TTITLE18=Patti Page - 19  - The Tennessee Waltz
EXTD=
EXTT0=
EXTT1=
EXTT2=
EXTT3=
EXTT4=
EXTT5=
EXTT6=
EXTT7=
EXTT8=
EXTT9=
EXTT10=
EXTT11=
EXTT12=
EXTT13=
EXTT14=
EXTT15=
EXTT16=
EXTT17=
EXTT18=
PLAYORDER=
